HIERARCHY
ROOT RootJoint
{
    OFFSET   0.000000   0.000000   0.000000
    CHANNELS 6 Xposition Yposition Zposition Xrotation Yrotation Zrotation
    JOINT pelvis_lowerback
    {
        OFFSET   0.000000   0.093605   0.000000
        CHANNELS 3 Xrotation Yrotation Zrotation
        JOINT lowerback_torso
        {
            OFFSET   0.000000   0.100000   0.000000
            CHANNELS 3 Xrotation Yrotation Zrotation
            JOINT torso_head
            {
                OFFSET   0.000000   0.282350   0.000000
                CHANNELS 3 Xrotation Yrotation Zrotation
                End Site
                {
                    OFFSET   0.000000   0.192650   0.000000
                }
            }
            JOINT rTorso_Clavicle
            {
                OFFSET  -0.001000   0.157500   0.000000
                CHANNELS 3 Xrotation Yrotation Zrotation
                JOINT rShoulder
                {
                    OFFSET  -0.117647   0.000000   0.000000
                    CHANNELS 3 Xrotation Yrotation Zrotation
                    JOINT rElbow
                    {
                        OFFSET  -0.245000   0.000000   0.000000
                        CHANNELS 3 Xrotation Yrotation Zrotation
                        JOINT rWrist
                        {
                            OFFSET  -0.240000   0.000000   0.000000
                            CHANNELS 3 Xrotation Yrotation Zrotation
                            End Site
                            {
                                OFFSET  -0.116353  -0.002500   0.000000
                            }
                        }
                    }
                }
            }
            JOINT lTorso_Clavicle
            {
                OFFSET   0.001000   0.157500   0.000000
                CHANNELS 3 Xrotation Yrotation Zrotation
                JOINT lShoulder
                {
                    OFFSET   0.117647   0.000000   0.000000
                    CHANNELS 3 Xrotation Yrotation Zrotation
                    JOINT lElbow
                    {
                        OFFSET   0.245000   0.000000   0.000000
                        CHANNELS 3 Xrotation Yrotation Zrotation
                        JOINT lWrist
                        {
                            OFFSET   0.240000   0.000000   0.000000
                            CHANNELS 3 Xrotation Yrotation Zrotation
                            End Site
                            {
                                OFFSET   0.116353  -0.002500   0.000000
                            }
                        }
                    }
                }
            }
        }
    }
    JOINT rHip
    {
        OFFSET  -0.100000  -0.051395   0.000000
        CHANNELS 3 Xrotation Yrotation Zrotation
        JOINT rKnee
        {
            OFFSET   0.000000  -0.410000   0.000000
            CHANNELS 3 Xrotation Yrotation Zrotation
            JOINT rAnkle
            {
                OFFSET   0.000000  -0.390000   0.000000
                CHANNELS 3 Xrotation Yrotation Zrotation
                JOINT rToeJoint
                {
                    OFFSET   0.000000  -0.050000   0.130000
                    CHANNELS 3 Xrotation Yrotation Zrotation
                    End Site
                    {
                        OFFSET  -0.010000   0.002000   0.060000
                    }
                }
            }
        }
    }
    JOINT lHip
    {
        OFFSET   0.100000  -0.051395   0.000000
        CHANNELS 3 Xrotation Yrotation Zrotation
        JOINT lKnee
        {
            OFFSET   0.000000  -0.410000   0.000000
            CHANNELS 3 Xrotation Yrotation Zrotation
            JOINT lAnkle
            {
                OFFSET   0.000000  -0.390000   0.000000
                CHANNELS 3 Xrotation Yrotation Zrotation
                JOINT lToeJoint
                {
                    OFFSET   0.000000  -0.050000   0.130000
                    CHANNELS 3 Xrotation Yrotation Zrotation
                    End Site
                    {
                        OFFSET   0.010000   0.002000   0.060000
                    }
                }
            }
        }
    }
}
MOTION
Frames: 7
Frame Time:   0.008333
 -2.339343   0.928724   5.073836  -4.631178   5.107412   1.769640   8.856058  -1.744502  -4.442265   7.612747  -2.787840   1.997164   3.787090   0.249083   2.090975   3.714558   0.256002  11.280111  11.680904   9.772189  44.071869  -0.000031  20.593606   0.000124  12.607152   3.711201   5.411218   0.948239  -4.129984  -9.297819   5.802886 -13.756397 -38.311033   0.000851 -21.608685  -0.000459   9.709827  -5.154253  -3.046776 -22.329053   3.833311  -6.431857  59.883731  -0.011331  -0.007156  -6.366386  -3.218782   4.321375  -3.145499   0.000524   0.000169   7.560226  -6.407620  -5.540277   3.608228   0.000052   0.001350   2.025801  -4.939463   5.076782 -12.741212  -0.000551  -0.000676
 -2.339545   0.929260   5.077643  -4.617946   5.402144   1.667191   8.936374  -1.840157  -4.413987   7.657584  -2.844856   2.016763   3.847768   0.216500   2.056393   3.741341   0.255169  11.300937  11.745536   9.654477  44.143737  -0.000052  20.501418   0.000209  12.581114   3.732540   5.420112   0.900883  -4.213537  -9.379982   5.595756 -13.949213 -38.376880   0.001081 -21.807302  -0.000437   9.714115  -5.160087  -2.986492 -22.594497   3.900944  -6.401165  58.264690  -0.012866  -0.008936  -6.221873  -3.249912   4.335047  -3.087726   0.000484   0.000307   7.682869  -6.374051  -5.366429   3.820296   0.000049   0.001678   2.056623  -5.207480   5.156542 -13.264269  -0.000246  -0.000617
 -2.339756   0.929686   5.081430  -4.591244   5.665463   1.592465   9.010457  -1.916755  -4.411017   7.696172  -2.892475   2.023872   3.902056   0.186692   2.022754   3.771609   0.254524  11.328201  11.809572   9.543601  44.220809  -0.000076  20.412140   0.000280  12.558720   3.732778   5.450256   0.857984  -4.291893  -9.463719   5.400774 -14.133635 -38.450468   0.001277 -21.996787  -0.000417   9.715016  -5.188888  -2.949530 -22.845101   3.980828  -6.395789  56.582247  -0.013855  -0.010347  -6.091153  -3.278629   4.347380  -3.017462   0.000452   0.000449   7.788235  -6.335086  -5.225611   4.035774   0.000047   0.001907   2.064513  -5.454822   5.236127 -13.759116  -0.000010  -0.000556
 -2.339990   0.930011   5.085213  -4.562645   5.908405   1.539282   9.084831  -1.985898  -4.422829   7.735432  -2.935852   2.019809   3.952363   0.159103   1.989885   3.800950   0.254086  11.359374  11.869796   9.440825  44.297549  -0.000095  20.328529   0.000330  12.537800   3.729194   5.491417   0.819613  -4.365246  -9.549052   5.218850 -14.306348 -38.525285   0.001423 -22.173936  -0.000388   9.714418  -5.224084  -2.926349 -23.096330   4.062037  -6.403939  54.963270  -0.014096  -0.011271  -5.970952  -3.305652   4.358765  -2.952672   0.000410   0.000539   7.896876  -6.298846  -5.106837   4.240594   0.000043   0.002027   2.049632  -5.685610   5.313308 -14.216925   0.000168  -0.000495
 -2.340252   0.930256   5.089001  -4.534658   6.138867   1.502079   9.159705  -2.051087  -4.443000   7.777118  -2.977185   2.008404   3.999690   0.133303   1.958229   3.828864   0.253510  11.392741  11.926195   9.345279  44.371931  -0.000109  20.250334   0.000364  12.517825   3.725029   5.536390   0.785459  -4.434149  -9.635681   5.049334 -14.467729 -38.600261   0.001522 -22.338981  -0.000353   9.713037  -5.258892  -2.913421 -23.347488   4.140700  -6.416925  53.437296  -0.013758  -0.011827  -5.859443  -3.330961   4.369423  -2.894399   0.000363   0.000588   8.011807  -6.268104  -5.002459   4.434542   0.000035   0.002072   2.018466  -5.903480   5.387717 -14.646793   0.000301  -0.000437
 -2.340589   0.930112   5.092828  -4.507200   6.376354   1.423391   9.227646  -2.116468  -4.426332   7.816550  -3.018159   2.010165   4.044699   0.109117   1.929549   3.860024   0.246933  11.405583  11.983304   9.251999  44.437826  -0.000102  20.177531   0.000378  12.498219   3.726085   5.590334   0.756780  -4.495442  -9.709361   4.892218 -14.618366 -38.675414   0.001551 -22.494839  -0.000329   9.709472  -5.302670  -2.920106 -23.603409   4.201952  -6.383579  52.024131  -0.013196  -0.012272  -5.756117  -3.354201   4.379893  -2.847387   0.000316   0.000602   8.130330  -6.232350  -4.842451   4.677654   0.000005   0.002235   2.157876  -6.099092   5.419918 -16.782543   0.000131  -0.000956
 -2.340862   0.930177   5.096672  -4.483553   6.572264   1.440204   9.298880  -2.169096  -4.484602   7.861811  -3.053142   1.981061   4.086254   0.086677   1.901177   3.884251   0.246779  11.449237  12.032408   9.168505  44.504544  -0.000112  20.107268   0.000390  12.481143   3.709871   5.625381   0.730101  -4.554384  -9.798663   4.746581 -14.755605 -38.742998   0.001566 -22.635226  -0.000298   9.708893  -5.322422  -2.909887 -23.842540   4.284325  -6.433235  50.684878  -0.012151  -0.012028  -5.659077  -3.376278   4.389007  -2.798081   0.000268   0.000599   8.271871  -6.218988  -4.787825   4.848211  -0.000004   0.002122   2.001261  -6.305441   5.450338 -16.759523   0.000102  -0.000765
